<?xml version="1.0" encoding="iso-8859-1"?>
<!-- Generator: Adobe Illustrator 16.0.0, SVG Export Plug-In . SVG Version: 6.00 Build 0)  -->
<!DOCTYPE svg PUBLIC "-//W3C//DTD SVG 1.1//EN" "http://www.w3.org/Graphics/SVG/1.1/DTD/svg11.dtd">
<svg version="1.1" id="Capa_1" xmlns="http://www.w3.org/2000/svg" xmlns:xlink="http://www.w3.org/1999/xlink" x="0px" y="0px"
	 width="612px" height="612px" viewBox="0 0 612 612" style="enable-background:new 0 0 612 612;" xml:space="preserve">
<g>
	<g>
		<path d="M528.427,502.015c-1.854,0-3.668-0.783-4.941-2.235l-59.562-67.687c-8.983,0.987-17.303,1.469-25.342,1.469
			c-39.181,0-76.183-9.32-106.999-26.948c-2.18-1.248-3.46-3.628-3.302-6.13c0.158-2.509,1.729-4.704,4.046-5.669
			c16.107-6.68,30.562-14.59,42.974-23.508c39.089-27.985,60.611-65.376,60.611-105.285c0-27.043-8.503-51.588-25.275-72.95
			c-1.479-1.883-1.817-4.424-0.886-6.63c0.932-2.209,2.989-3.733,5.373-3.986l1.254-0.132c7.528-0.796,14.034-1.488,22.201-1.488
			c95.626,0,173.422,56.688,173.422,126.363c0,42.474-28.696,81.477-76.993,104.994v83.235c0,2.738-1.698,5.191-4.26,6.159
			C529.99,501.876,529.207,502.015,528.427,502.015z M466.586,418.572c1.88,0,3.685,0.804,4.945,2.235l50.308,57.172v-69.951
			c0-2.571,1.495-4.905,3.832-5.979c45.812-21.085,73.161-56.543,73.161-94.849c0-62.416-71.891-113.194-160.254-113.194
			c-3.815,0-7.295,0.171-10.738,0.441c14.1,21.424,21.236,45.453,21.236,71.578c0,44.273-23.479,85.467-66.106,115.983
			c-9.876,7.098-20.937,13.583-33.009,19.36c26.29,12.477,56.646,19.024,88.617,19.024c8.523,0,17.425-0.583,27.212-1.774
			C466.057,418.589,466.323,418.572,466.586,418.572z"/>
		<path d="M100.422,498.516c-0.78,0-1.567-0.139-2.324-0.425c-2.561-0.968-4.26-3.421-4.26-6.159V389.606
			C34.991,361.227,0,313.977,0,262.546c0-84.124,94.164-152.561,209.907-152.561c115.747,0,209.917,68.437,209.917,152.561
			c0,84.123-94.17,152.561-209.917,152.561c-9.955,0-20.278-0.605-31.458-1.851l-73.085,83.027
			C104.089,497.731,102.275,498.516,100.422,498.516z M209.907,123.153c-108.48,0-196.739,62.531-196.739,139.393
			c0,47.256,33.647,90.961,90.006,116.908c2.337,1.073,3.832,3.407,3.832,5.979v89.058l63.838-72.519
			c1.435-1.63,3.575-2.446,5.731-2.187c11.993,1.448,22.893,2.153,33.331,2.153c108.488,0,196.75-62.531,196.75-139.393
			S318.395,123.153,209.907,123.153z"/>
	</g>
</g>
<g>
</g>
<g>
</g>
<g>
</g>
<g>
</g>
<g>
</g>
<g>
</g>
<g>
</g>
<g>
</g>
<g>
</g>
<g>
</g>
<g>
</g>
<g>
</g>
<g>
</g>
<g>
</g>
<g>
</g>
</svg>
